<svg xmlns="http://www.w3.org/2000/svg" width="960" height="500"><g transform="translate(30, 20)"><g><g transform="translate(0, 420)" fill="none" font-size="10" font-family="sans-serif" text-anchor="middle"><path class="domain" stroke="#000" d="M0.5000,5V0.5000H910.5000V5"></path><g class="tick" opacity="1" transform="translate(31.5,0)"><line stroke="#000" y2="5"></line><text fill="#000" y="10" dy="0.71em">268</text></g><g class="tick" opacity="1" transform="translate(94.5,0)"><line stroke="#000" y2="5"></line><text fill="#000" y="10" dy="0.71em">270</text></g><g class="tick" opacity="1" transform="translate(157.5,0)"><line stroke="#000" y2="5"></line><text fill="#000" y="10" dy="0.71em">272</text></g><g class="tick" opacity="1" transform="translate(220.5,0)"><line stroke="#000" y2="5"></line><text fill="#000" y="10" dy="0.71em">274</text></g><g class="tick" opacity="1" transform="translate(282.5,0)"><line stroke="#000" y2="5"></line><text fill="#000" y="10" dy="0.71em">276</text></g><g class="tick" opacity="1" transform="translate(345.5,0)"><line stroke="#000" y2="5"></line><text fill="#000" y="10" dy="0.71em">278</text></g><g class="tick" opacity="1" transform="translate(408.5,0)"><line stroke="#000" y2="5"></line><text fill="#000" y="10" dy="0.71em">280</text></g><g class="tick" opacity="1" transform="translate(471.5,0)"><line stroke="#000" y2="5"></line><text fill="#000" y="10" dy="0.71em">282</text></g><g class="tick" opacity="1" transform="translate(533.5,0)"><line stroke="#000" y2="5"></line><text fill="#000" y="10" dy="0.71em">284</text></g><g class="tick" opacity="1" transform="translate(596.5,0)"><line stroke="#000" y2="5"></line><text fill="#000" y="10" dy="0.71em">286</text></g><g class="tick" opacity="1" transform="translate(659.5,0)"><line stroke="#000" y2="5"></line><text fill="#000" y="10" dy="0.71em">288</text></g><g class="tick" opacity="1" transform="translate(722.5,0)"><line stroke="#000" y2="5"></line><text fill="#000" y="10" dy="0.71em">290</text></g><g class="tick" opacity="1" transform="translate(784.5,0)"><line stroke="#000" y2="5"></line><text fill="#000" y="10" dy="0.71em">292</text></g><g class="tick" opacity="1" transform="translate(847.5,0)"><line stroke="#000" y2="5"></line><text fill="#000" y="10" dy="0.71em">294</text></g><g class="tick" opacity="1" transform="translate(910.5,0)"><line stroke="#000" y2="5"></line><text fill="#000" y="10" dy="0.71em">296</text></g></g><g fill="none" font-size="10" font-family="sans-serif" text-anchor="end"><path class="domain" stroke="#000" d="M-5,420.5000H0.5000V0.5000H-5"></path><g class="tick" opacity="1" transform="translate(0,365.5)"><line stroke="#000" x2="-5"></line><text fill="#000" x="-10" dy="0.32em">-0.8</text></g><g class="tick" opacity="1" transform="translate(0,308.5)"><line stroke="#000" x2="-5"></line><text fill="#000" x="-10" dy="0.32em">-0.6</text></g><g class="tick" opacity="1" transform="translate(0,252.5)"><line stroke="#000" x2="-5"></line><text fill="#000" x="-10" dy="0.32em">-0.4</text></g><g class="tick" opacity="1" transform="translate(0,196.5)"><line stroke="#000" x2="-5"></line><text fill="#000" x="-10" dy="0.32em">-0.2</text></g><g class="tick" opacity="1" transform="translate(0,139.5)"><line stroke="#000" x2="-5"></line><text fill="#000" x="-10" dy="0.32em">0.0</text></g><g class="tick" opacity="1" transform="translate(0,83.5)"><line stroke="#000" x2="-5"></line><text fill="#000" x="-10" dy="0.32em">0.2</text></g><g class="tick" opacity="1" transform="translate(0,26.5)"><line stroke="#000" x2="-5"></line><text fill="#000" x="-10" dy="0.32em">0.4</text></g></g><g fill="none" stroke-width="1.5"><path stroke="steelblue" d="M0,0L5.1667,32.5000C10.3333,65,20.6667,130,31.1667,200C41.6667,270,52.3333,345,62.8333,359.1667C73.3333,373.3333,83.6667,326.6667,94.1667,317.3333C104.6667,308,115.3333,336,125.8333,319.1667C136.3333,302.3333,146.6667,240.6667,157,204C167.3333,167.3333,177.6667,155.6667,188.1667,180C198.6667,204.3333,209.3333,264.6667,219.8333,257.1667C230.3333,249.6667,240.6667,174.3333,251,164.6667C261.3333,155,271.6667,211,282.1667,252.5000C292.6667,294,303.3333,321,313.8333,287.6667C324.3333,254.3333,334.6667,160.6667,345.1667,139.3333C355.6667,118,366.3333,169,376.8333,170.3333C387.3333,171.6667,397.6667,123.3333,408,109.8333C418.3333,96.3333,428.6667,117.6667,439.1667,144.1667C449.6667,170.6667,460.3333,202.3333,470.8333,218C481.3333,233.6667,491.6667,233.3333,502,221.1667C512.3333,209,522.6667,185,533.1667,165.1667C543.6667,145.3333,554.3333,129.6667,564.8333,141.6667C575.3333,153.6667,585.6667,193.3333,596.1667,206.3333C606.6667,219.3333,617.3333,205.6667,627.8333,235.3333C638.3333,265,648.6667,338,659,352.5000C669.3333,367,679.6667,323,690.1667,262C700.6667,201,711.3333,123,721.8333,127.6667C732.3333,132.3333,742.6667,219.6667,753,262.1667C763.3333,304.6667,773.6667,302.3333,784.1667,290C794.6667,277.6667,805.3333,255.3333,815.8333,246C826.3333,236.6667,836.6667,240.3333,847.1667,224.6667C857.6667,209,868.3333,174,878.8333,147.1667C889.3333,120.3333,899.6667,101.6667,904.8333,92.3333L910,83"></path></g></g></g></svg>