<svg xmlns="http://www.w3.org/2000/svg" width="960" height="500"><g transform="translate(30, 20)"><g><g transform="translate(0, 420)" fill="none" font-size="10" font-family="sans-serif" text-anchor="middle"><path class="domain" stroke="#000" d="M0.5000,5V0.5000H910.5000V5"></path><g class="tick" opacity="1" transform="translate(0.5,0)"><line stroke="#000" y2="5"></line><text fill="#000" y="10" dy="0.71em">38.0</text></g><g class="tick" opacity="1" transform="translate(91.5,0)"><line stroke="#000" y2="5"></line><text fill="#000" y="10" dy="0.71em">38.5</text></g><g class="tick" opacity="1" transform="translate(182.5,0)"><line stroke="#000" y2="5"></line><text fill="#000" y="10" dy="0.71em">39.0</text></g><g class="tick" opacity="1" transform="translate(273.5,0)"><line stroke="#000" y2="5"></line><text fill="#000" y="10" dy="0.71em">39.5</text></g><g class="tick" opacity="1" transform="translate(364.5,0)"><line stroke="#000" y2="5"></line><text fill="#000" y="10" dy="0.71em">40.0</text></g><g class="tick" opacity="1" transform="translate(455.5,0)"><line stroke="#000" y2="5"></line><text fill="#000" y="10" dy="0.71em">40.5</text></g><g class="tick" opacity="1" transform="translate(546.5,0)"><line stroke="#000" y2="5"></line><text fill="#000" y="10" dy="0.71em">41.0</text></g><g class="tick" opacity="1" transform="translate(637.5,0)"><line stroke="#000" y2="5"></line><text fill="#000" y="10" dy="0.71em">41.5</text></g><g class="tick" opacity="1" transform="translate(728.5,0)"><line stroke="#000" y2="5"></line><text fill="#000" y="10" dy="0.71em">42.0</text></g><g class="tick" opacity="1" transform="translate(819.5,0)"><line stroke="#000" y2="5"></line><text fill="#000" y="10" dy="0.71em">42.5</text></g><g class="tick" opacity="1" transform="translate(910.5,0)"><line stroke="#000" y2="5"></line><text fill="#000" y="10" dy="0.71em">43.0</text></g></g><g fill="none" font-size="10" font-family="sans-serif" text-anchor="end"><path class="domain" stroke="#000" d="M-5,420.5000H0.5000V0.5000H-5"></path><g class="tick" opacity="1" transform="translate(0,378.5)"><line stroke="#000" x2="-5"></line><text fill="#000" x="-10" dy="0.32em">-0.8</text></g><g class="tick" opacity="1" transform="translate(0,336.5)"><line stroke="#000" x2="-5"></line><text fill="#000" x="-10" dy="0.32em">-0.6</text></g><g class="tick" opacity="1" transform="translate(0,294.5)"><line stroke="#000" x2="-5"></line><text fill="#000" x="-10" dy="0.32em">-0.4</text></g><g class="tick" opacity="1" transform="translate(0,252.5)"><line stroke="#000" x2="-5"></line><text fill="#000" x="-10" dy="0.32em">-0.2</text></g><g class="tick" opacity="1" transform="translate(0,210.5)"><line stroke="#000" x2="-5"></line><text fill="#000" x="-10" dy="0.32em">0.0</text></g><g class="tick" opacity="1" transform="translate(0,168.5)"><line stroke="#000" x2="-5"></line><text fill="#000" x="-10" dy="0.32em">0.2</text></g><g class="tick" opacity="1" transform="translate(0,126.5)"><line stroke="#000" x2="-5"></line><text fill="#000" x="-10" dy="0.32em">0.4</text></g><g class="tick" opacity="1" transform="translate(0,84.5)"><line stroke="#000" x2="-5"></line><text fill="#000" x="-10" dy="0.32em">0.6</text></g><g class="tick" opacity="1" transform="translate(0,42.5)"><line stroke="#000" x2="-5"></line><text fill="#000" x="-10" dy="0.32em">0.8</text></g></g><g fill="none" stroke-width="1.5"><path stroke="steelblue" d="M0,0L0,69.8333C0,139.6667,0,279.3333,0,279.3333C0,279.3333,0,139.6667,0,70.8333C0,2,0,4,30.3333,73.8333C60.6667,143.6667,121.3333,281.3333,151.6667,280.5000C182,279.6667,182,140.3333,182,140.1667C182,140,182,279,182,348.8333C182,418.6667,182,419.3333,182,350C182,280.6667,182,141.3333,182,141.3333C182,141.3333,182,280.6667,182,350.1667C182,419.6667,182,419.3333,182,419.1667C182,419,182,419,182,419C182,419,182,419,182,419C182,419,182,419,182,419.1667C182,419.3333,182,419.6667,182,419.6667C182,419.6667,182,419.3333,182,419.3333C182,419.3333,182,419.6667,182,419.5000C182,419.3333,182,418.6667,182,348.6667C182,278.6667,182,139.3333,182,139.5000C182,139.6667,182,279.3333,182,348.8333C182,418.3333,182,417.6667,182,417.8333C182,418,182,419,182,419.5000C182,420,182,420,182,420C182,420,182,420,182,420C182,420,182,420,182,420C182,420,182,420,182,350C182,280,182,140,182,70.6667C182,1.3333,182,2.6667,182,2.8333C182,3,182,2,182,71.3333C182,140.6667,182,280.3333,182,350.1667C182,420,182,420,182,420C182,420,182,420,182,420C182,420,182,420,182,420C182,420,182,420,182,420C182,420,182,420,182,419.8333C182,419.6667,182,419.3333,182,418.8333C182,418.3333,182,417.6667,182,417.6667C182,417.6667,182,418.3333,182,418.6667C182,419,182,419,182,349.6667C182,280.3333,182,141.6667,182,141.6667C182,141.6667,182,280.3333,182,349.6667C182,419,182,419,182,418.8333C182,418.6667,182,418.3333,182,418.5000C182,418.6667,182,419.3333,182,349.6667C182,280,182,140,182,140C182,140,182,280,182,280C182,280,182,140,182,70C182,0,182,0,182,69.8333C182,139.6667,182,279.3333,182,349.3333C182,419.3333,182,419.6667,182,419.3333C182,419,182,418,182,348C182,278,182,139,182,138.8333C182,138.6667,182,277.3333,182,277.3333C182,277.3333,182,138.6667,182,139.3333C182,140,182,280,182,280.1667C182,280.3333,182,140.6667,182,70.8333C182,1,182,1,182,10.5000C182,20,182,39,182,40.1667C182,41.3333,182,24.6667,182,84.8333C182,145,182,282,182,350.5000C182,419,182,419,182,419.1667C182,419.3333,182,419.6667,182,350.5000C182,281.3333,182,142.6667,182,142.6667C182,142.6667,182,281.3333,182,350.6667C182,420,182,420,182,350C182,280,182,140,182,139.8333C182,139.6667,182,279.3333,182,349.1667C182,419,182,419,182,418.6667C182,418.3333,182,417.6667,182,347.8333C182,278,182,139,182,139C182,139,182,278,182,348C182,418,182,419,212.3333,419.3333C242.6667,419.6667,303.3333,419.3333,333.6667,349.3333C364,279.3333,364,139.6667,364,139.5000C364,139.3333,364,278.6667,364,278.6667C364,278.6667,364,139.3333,364,139.6667C364,140,364,280,364,280C364,280,364,140,364,70C364,0,364,0,364,69.6667C364,139.3333,364,278.6667,364,347.6667C364,416.6667,364,415.3333,364,415.6667C364,416,364,418,364,418.8333C364,419.6667,364,419.3333,364,349.3333C364,279.3333,364,139.6667,364,139.8333C364,140,364,280,364,350C364,420,364,420,364,419.8333C364,419.6667,364,419.3333,364,419C364,418.6667,364,418.3333,364,348.8333C364,279.3333,364,140.6667,364,72.6667C364,4.6667,364,7.3333,364,76.8333C364,146.3333,364,282.6667,364,351C364,419.3333,364,419.6667,364,349.8333C364,280,364,140,364,138.6667C364,137.3333,364,274.6667,364,344.3333C364,414,364,416,364,417.3333C364,418.6667,364,419.3333,364,419.5000C364,419.6667,364,419.3333,364,419.3333C364,419.3333,364,419.6667,364,419.5000C364,419.3333,364,418.6667,364,418.6667C364,418.6667,364,419.3333,364,351C364,282.6667,364,145.3333,364,75.3333C364,5.3333,364,2.6667,364,1.5000C364,0.3333,364,0.6667,364,0.8333C364,1,364,1,364,5.1667C364,9.3333,364,17.6667,364,17.5000C364,17.3333,364,8.6667,364,4.8333C364,1,364,2,364,71.5000C364,141,364,279,364,348.3333C364,417.6667,364,418.3333,364,418.8333C364,419.3333,364,419.6667,364,349.8333C364,280,364,140,364,70.1667C364,0.3333,364,0.6667,364,70.6667C364,140.6667,364,280.3333,364,350.1667C364,420,364,420,364,350C364,280,364,140,364,140C364,140,364,280,364,350C364,420,364,420,364,420C364,420,364,420,364,420C364,420,364,420,364,420C364,420,364,420,364,419.6667C364,419.3333,364,418.6667,364,348.6667C364,278.6667,364,139.3333,364,69.8333C364,0.3333,364,0.6667,364,70.6667C364,140.6667,364,280.3333,364,280.1667C364,280,364,140,364,70C364,0,364,0,364,1C364,2,364,4,364,4C364,4,364,2,364,1.5000C364,1,364,2,364,2C364,2,364,1,364,70.1667C364,139.3333,364,278.6667,364,278.8333C364,279,364,140,364,140.3333C364,140.6667,364,280.3333,364,350C364,419.6667,364,419.3333,364,419.3333C364,419.3333,364,419.6667,364,350.1667C364,280.6667,364,141.3333,364,141.3333C364,141.3333,364,280.6667,364,280.3333C364,280,364,140,364,140C364,140,364,280,364,280C364,280,364,140,394.3333,139.8333C424.6667,139.6667,485.3333,279.3333,515.6667,349.1667C546,419,546,419,546,419C546,419,546,419,546,349.1667C546,279.3333,546,139.6667,546,70.5000C546,1.3333,546,2.6667,546,72.6667C546,142.6667,546,281.3333,546,281C546,280.6667,546,141.3333,546,71.5000C546,1.6667,546,1.3333,546,71C546,140.6667,546,280.3333,546,350.1667C546,420,546,420,546,420C546,420,546,420,546,420C546,420,546,420,546,419.8333C546,419.6667,546,419.3333,546,349.3333C546,279.3333,546,139.6667,546,139.8333C546,140,546,280,546,349.8333C546,419.6667,546,419.3333,546,419.1667C546,419,546,419,546,349.1667C546,279.3333,546,139.6667,546,139.6667C546,139.6667,546,279.3333,546,279.8333C546,280.3333,546,141.6667,546,71.8333C546,2,546,1,546,0.6667C546,0.3333,546,0.6667,546,0.8333C546,1,546,1,546,70.5000C546,140,546,279,546,278.8333C546,278.6667,546,139.3333,546,69.8333C546,0.3333,546,0.6667,546,70.5000C546,140.3333,546,279.6667,546,349.3333C546,419,546,419,546,349.6667C546,280.3333,546,141.6667,546,141.8333C546,142,546,281,546,350.1667C546,419.3333,546,418.6667,546,364.1667C546,309.6667,546,201.3333,546,201.5000C546,201.6667,546,310.3333,546,364.8333C546,419.3333,546,419.6667,546,419.6667C546,419.6667,546,419.3333,546,349.5000C546,279.6667,546,140.3333,546,140.5000C546,140.6667,546,280.3333,546,350C546,419.6667,546,419.3333,546,349.3333C546,279.3333,546,139.6667,546,139.8333C546,140,546,280,546,280.1667C546,280.3333,546,140.6667,546,140.6667C546,140.6667,546,280.3333,546,280.5000C546,280.6667,546,141.3333,546,72C546,2.6667,546,3.3333,546,3C546,2.6667,546,1.3333,546,70.6667C546,140,546,280,546,350C546,420,546,420,546,418.5000C546,417,546,414,546,414C546,414,546,417,546,348.5000C546,280,546,140,546,71.1667C546,2.3333,546,4.6667,546,73.1667C546,141.6667,546,276.3333,546,345C546,413.6667,546,416.3333,546,417C546,417.6667,546,416.3333,546,346.5000C546,276.6667,546,138.3333,546,69.5000C546,0.6667,546,1.3333,546,71.3333C546,141.3333,546,280.6667,546,350C546,419.3333,546,418.6667,546,413.1667C546,407.6667,546,397.3333,546,397.6667C546,398,546,409,546,414.3333C546,419.6667,546,419.3333,576.3333,349.5000C606.6667,279.6667,667.3333,140.3333,697.6667,140.1667C728,140,728,279,728,348.6667C728,418.3333,728,418.6667,728,418.8333C728,419,728,419,728,349.1667C728,279.3333,728,139.6667,728,139.1667C728,138.6667,728,277.3333,728,278C728,278.6667,728,141.3333,728,141.5000C728,141.6667,728,279.3333,728,348.6667C728,418,728,419,728,419.5000C728,420,728,420,728,350C728,280,728,140,728,140C728,140,728,280,728,350C728,420,728,420,728,420C728,420,728,420,728,419.8333C728,419.6667,728,419.3333,728,419.3333C728,419.3333,728,419.6667,728,419.8333C728,420,728,420,728,350C728,280,728,140,728,70.1667C728,0.3333,728,0.6667,728,70.6667C728,140.6667,728,280.3333,728,350C728,419.6667,728,419.3333,728,419.3333C728,419.3333,728,419.6667,728,419.8333C728,420,728,420,728,419.8333C728,419.6667,728,419.3333,728,349.3333C728,279.3333,728,139.6667,728,139.8333C728,140,728,280,728,349.8333C728,419.6667,728,419.3333,728,349.6667C728,280,728,141,728,72C728,3,728,4,728,73.6667C728,143.3333,728,281.6667,728,281.1667C728,280.6667,728,141.3333,728,71.6667C728,2,728,2,728,71.5000C728,141,728,280,728,280C728,280,728,141,728,71.1667C728,1.3333,728,0.6667,728,70.3333C728,140,728,280,728,350C728,420,728,420,728,419.8333C728,419.6667,728,419.3333,728,419.3333C728,419.3333,728,419.6667,728,419.8333C728,420,728,420,728,350.1667C728,280.3333,728,140.6667,728,140.6667C728,140.6667,728,280.3333,728,350C728,419.6667,728,419.3333,728,419.3333C728,419.3333,728,419.6667,728,419.8333C728,420,728,420,728,420C728,420,728,420,728,420C728,420,728,420,728,351C728,282,728,144,728,143.8333C728,143.6667,728,281.3333,728,280.6667C728,280,728,141,728,72C728,3,728,4,728,73.3333C728,142.6667,728,280.3333,728,279.6667C728,279,728,140,728,140C728,140,728,279,728,348.5000C728,418,728,418,728,418.1667C728,418.3333,728,418.6667,728,412.1667C728,405.6667,728,392.3333,728,392.1667C728,392,728,405,728,411.8333C728,418.6667,728,419.3333,728,419.5000C728,419.6667,728,419.3333,728,419.3333C728,419.3333,728,419.6667,728,350C728,280.3333,728,140.6667,728,140.6667C728,140.6667,728,280.3333,728,280.1667C728,280,728,140,758.3333,139.8333C788.6667,139.6667,849.3333,279.3333,879.6667,349.3333C910,419.3333,910,419.6667,910,350C910,280.3333,910,140.6667,910,70.6667C910,0.6667,910,0.3333,910,0.1667C910,0,910,0,910,0L910,0"></path></g></g></g></svg>